<svg width="16" height="16" viewBox="0 0 16 16" fill="none" xmlns="http://www.w3.org/2000/svg">
<path d="M8.00269 3.8916C5.73406 3.8916 3.89743 5.73024 3.89743 7.99686C3.89743 10.2655 5.73606 12.1021 8.00269 12.1021C10.2713 12.1021 12.108 10.2635 12.108 7.99686C12.108 5.72824 10.2693 3.8916 8.00269 3.8916V3.8916ZM8.00269 10.6615C6.53005 10.6615 5.33807 9.46884 5.33807 7.99686C5.33807 6.52489 6.53072 5.33224 8.00269 5.33224C9.47467 5.33224 10.6673 6.52489 10.6673 7.99686C10.668 9.46884 9.47533 10.6615 8.00269 10.6615V10.6615Z" fill="white"/>
<path d="M11.2986 0.0502569C9.82665 -0.0184086 6.18071 -0.0150753 4.7074 0.0502569C3.41276 0.110922 2.27078 0.423584 1.35013 1.34423C-0.188512 2.88287 0.00815137 4.95617 0.00815137 7.99678C0.00815137 11.1087 -0.165179 13.134 1.35013 14.6493C2.89477 16.1933 4.99806 15.9913 8.00268 15.9913C11.0853 15.9913 12.1493 15.9933 13.2393 15.5713C14.7212 14.996 15.8399 13.6714 15.9492 11.2921C16.0185 9.81942 16.0145 6.17415 15.9492 4.70084C15.8172 1.89222 14.3099 0.188921 11.2986 0.0502569V0.0502569ZM13.6286 13.6314C12.6199 14.64 11.2206 14.55 7.98335 14.55C4.65007 14.55 3.31343 14.5993 2.33811 13.6214C1.2148 12.5034 1.41813 10.7081 1.41813 7.98612C1.41813 4.30285 1.04013 1.65023 4.73674 1.4609C5.58605 1.4309 5.83605 1.4209 7.97401 1.4209L8.00401 1.4409C11.5566 1.4409 14.3439 1.06891 14.5112 4.76484C14.5492 5.60816 14.5579 5.86149 14.5579 7.99612C14.5572 11.2907 14.6199 12.6354 13.6286 13.6314V13.6314Z" fill="white"/>
<path d="M12.2706 4.6889C12.8004 4.6889 13.2299 4.2594 13.2299 3.72958C13.2299 3.19976 12.8004 2.77026 12.2706 2.77026C11.7408 2.77026 11.3113 3.19976 11.3113 3.72958C11.3113 4.2594 11.7408 4.6889 12.2706 4.6889Z" fill="white"/>
<!-- <path d="M165.9 397.4c0 2-2.3 3.6-5.2 3.6-3.3 .3-5.6-1.3-5.6-3.6 0-2 2.3-3.6 5.2-3.6 3-.3 5.6 1.3 5.6 3.6zm-31.1-4.5c-.7 2 1.3 4.3 4.3 4.9 2.6 1 5.6 0 6.2-2s-1.3-4.3-4.3-5.2c-2.6-.7-5.5 .3-6.2 2.3zm44.2-1.7c-2.9 .7-4.9 2.6-4.6 4.9 .3 2 2.9 3.3 5.9 2.6 2.9-.7 4.9-2.6 4.6-4.6-.3-1.9-3-3.2-5.9-2.9zM244.8 8C106.1 8 0 113.3 0 252c0 110.9 69.8 205.8 169.5 239.2 12.8 2.3 17.3-5.6 17.3-12.1 0-6.2-.3-40.4-.3-61.4 0 0-70 15-84.7-29.8 0 0-11.4-29.1-27.8-36.6 0 0-22.9-15.7 1.6-15.4 0 0 24.9 2 38.6 25.8 21.9 38.6 58.6 27.5 72.9 20.9 2.3-16 8.8-27.1 16-33.7-55.9-6.2-112.3-14.3-112.3-110.5 0-27.5 7.6-41.3 23.6-58.9-2.6-6.5-11.1-33.3 2.6-67.9 20.9-6.5 69 27 69 27 20-5.6 41.5-8.5 62.8-8.5s42.8 2.9 62.8 8.5c0 0 48.1-33.6 69-27 13.7 34.7 5.2 61.4 2.6 67.9 16 17.7 25.8 31.5 25.8 58.9 0 96.5-58.9 104.2-114.8 110.5 9.2 7.9 17 22.9 17 46.4 0 33.7-.3 75.4-.3 83.6 0 6.5 4.6 14.4 17.3 12.1C428.2 457.8 496 362.9 496 252 496 113.3 383.5 8 244.8 8zM97.2 352.9c-1.3 1-1 3.3 .7 5.2 1.6 1.6 3.9 2.3 5.2 1 1.3-1 1-3.3-.7-5.2-1.6-1.6-3.9-2.3-5.2-1zm-10.8-8.1c-.7 1.3 .3 2.9 2.3 3.9 1.6 1 3.6 .7 4.3-.7 .7-1.3-.3-2.9-2.3-3.9-2-.6-3.6-.3-4.3 .7zm32.4 35.6c-1.6 1.3-1 4.3 1.3 6.2 2.3 2.3 5.2 2.6 6.5 1 1.3-1.3 .7-4.3-1.3-6.2-2.2-2.3-5.2-2.6-6.5-1zm-11.4-14.7c-1.6 1-1.6 3.6 0 5.9 1.6 2.3 4.3 3.3 5.6 2.3 1.6-1.3 1.6-3.9 0-6.2-1.4-2.3-4-3.3-5.6-2z"/></svg> -->
</svg>
